<?xml version="1.0" standalone="no"?>
<!DOCTYPE svg PUBLIC "-//W3C//DTD SVG 20010904//EN"
 "http://www.w3.org/TR/2001/REC-SVG-20010904/DTD/svg10.dtd">
<svg version="1.0" xmlns="http://www.w3.org/2000/svg"
 width="700.000000pt" height="700.000000pt" viewBox="0 0 700.000000 700.000000"
 preserveAspectRatio="xMidYMid meet">
<metadata>
Created by potrace 1.14, written by Peter Selinger 2001-2017
</metadata>
<g transform="translate(0.000000,700.000000) scale(0.100000,-0.100000)"
fill="#000000" stroke="none">
<path d="M3239 6296 c-2 -2 -53 -7 -114 -10 -60 -3 -121 -8 -135 -10 -14 -2
-52 -7 -85 -10 -33 -3 -69 -8 -80 -10 -11 -2 -45 -7 -75 -11 -175 -22 -411
-79 -625 -150 -279 -93 -521 -215 -730 -370 -214 -158 -394 -370 -447 -526
-38 -112 18 -229 133 -281 40 -17 127 -18 2433 -15 2256 2 2393 3 2423 20 79
43 137 141 128 216 -11 86 -115 233 -280 396 -244 241 -553 424 -946 560 -72
25 -141 47 -153 50 -11 2 -55 13 -96 24 -120 33 -310 71 -430 86 -25 3 -56 8
-70 10 -14 3 -56 7 -95 10 -38 4 -88 8 -110 11 -49 6 -641 15 -646 10z"/>
<path d="M1125 4429 c-167 -16 -301 -108 -375 -258 -132 -264 17 -581 307
-656 50 -13 358 -15 2449 -15 2154 0 2396 2 2445 16 220 65 354 249 345 472
-5 120 -49 219 -134 308 -33 35 -122 99 -122 88 0 -3 -6 -2 -12 4 -7 5 -40 18
-73 28 -57 16 -193 18 -2415 18 -1295 1 -2382 -2 -2415 -5z"/>
<path d="M898 3029 c-236 -34 -272 -363 -48 -446 45 -17 173 -18 2651 -17
2096 0 2612 3 2643 14 89 29 160 129 157 222 -2 95 -70 190 -157 218 -31 11
-541 14 -2620 14 -1419 1 -2601 -2 -2626 -5z"/>
<path d="M1110 2093 c-75 -25 -137 -82 -162 -148 -24 -62 -19 -369 7 -450 56
-173 214 -303 395 -323 83 -9 4259 -7 4323 2 146 21 284 125 347 261 40 87 42
104 46 280 4 200 -4 240 -63 305 -79 88 158 80 -2512 79 -1301 0 -2373 -3
-2381 -6z"/>
</g>
</svg>
