<svg version="1.1" xmlns="http://www.w3.org/2000/svg" viewBox="0 0 172 172">
    <g fill="none" fill-rule="nonzero" stroke="none" stroke-width="1" stroke-linecap="butt" stroke-linejoin="miter"
       stroke-miterlimit="10" stroke-dasharray="" stroke-dashoffset="0" font-family="none" font-weight="none"
       font-size="none" text-anchor="none" style="mix-blend-mode: normal">
        <path d="M0,172v-172h172v172z" fill="none"></path>
        <g fill="#28b76b">
            <path d="M86,17.2c-47.3,0 -63.06667,23.48373 -63.06667,28.66667c0,3.1648 2.56853,5.73333 5.73333,5.73333h114.66667c3.1648,0 5.73333,-2.41373 5.73333,-5.73333c0,-3.3196 -15.76667,-28.66667 -63.06667,-28.66667zM28.66667,63.06667c-6.33533,0 -11.46667,5.13133 -11.46667,11.46667c0,6.33533 5.13133,11.46667 11.46667,11.46667h114.66667c6.33533,0 11.46667,-5.13133 11.46667,-11.46667c0,-6.33533 -5.13133,-11.46667 -11.46667,-11.46667zM22.93333,97.46667c-2.06765,-0.02924 -3.99087,1.05709 -5.03322,2.843c-1.04236,1.78592 -1.04236,3.99474 0,5.78066c1.04236,1.78592 2.96558,2.87225 5.03322,2.843h126.13333c2.06765,0.02924 3.99087,-1.05709 5.03322,-2.843c1.04236,-1.78592 1.04236,-3.99474 0,-5.78066c-1.04236,-1.78592 -2.96558,-2.87225 -5.03322,-2.843zM28.66667,120.4c-3.1648,0 -5.73333,2.56853 -5.73333,5.73333v5.73333c0,6.33533 5.13133,11.46667 11.46667,11.46667h103.2c6.33533,0 11.46667,-5.13133 11.46667,-11.46667v-5.73333c0,-3.1648 -2.56853,-5.73333 -5.73333,-5.73333z"></path>
        </g>
    </g>
</svg>